<?xml version="1.0" encoding="utf-8"?>
<!-- Generator: Adobe Illustrator 15.1.0, SVG Export Plug-In . SVG Version: 6.00 Build 0)  -->
<!DOCTYPE svg PUBLIC "-//W3C//DTD SVG 1.1//EN" "http://www.w3.org/Graphics/SVG/1.1/DTD/svg11.dtd">
<svg version="1.1" id="Layer_1" xmlns="http://www.w3.org/2000/svg" xmlns:xlink="http://www.w3.org/1999/xlink" x="0px" y="0px"
	 width="275.96px" height="319px" viewBox="0.2 3 275.96 319" enable-background="new 0.2 3 275.96 319" xml:space="preserve">
<path fill="#FFFFFF" d="M198.18,39c0,16-6.201,31-18,42l-110,110c-19,20-28,40-30,70H0.2l60,60l60-60H80.22
	c0.996-13.97,6.797-28,17-38l110-110c20-19,30-45,30-71V3h-39L198.18,39z"/>
<path fill="#FFFFFF" d="M238.18,260c-1.094-25-11-48-29-66l-21.99-22l-30,30l21.99,22c10,10,16.01,23.97,16.98,38h-40l60,60l60-60
	h-38.03L238.18,260z"/>
</svg>
