<svg xmlns="http://www.w3.org/2000/svg" width="1450" height="2100"><polygon fill="#3D302F" points="508,70 472,94 481,100 460,118 496,100 487,94"/><g fill="#3D302F"><polygon points="724.117,93.186 748,81.877 748,76 700,76 700,81.855"/><polygon points="724.131,99.818 700,88.483 700,112 748,112 748,88.516"/></g><polygon fill="#3D302F" points="265,106.598 252.391,94 265,81.402 256.599,73 244,85.604 231.396,73 223,81.402 235.599,94 223,106.598 231.396,115 244,102.396 256.599,115"/><polygon fill="#3D302F" points="357.912,113.315 340,95.403 348.544,86.86 357.912,96.229 379.458,74.685 388,83.228 357.912,113.315"/><path fill="#3D302F" d="M839.916 70h-19.916v19.916l28.078 28.084v-19.916h19.922l-28.084-28.084zm-8.947 16.682c-3.152 0-5.707-2.555-5.707-5.707s2.555-5.707 5.707-5.707 5.707 2.555 5.707 5.707-2.555 5.707-5.707 5.707z"/><circle fill="#3D302F" cx="106.001" cy="112" r="6.001"/><path fill="#3D302F" d="M109.035 100.006c4.963 0 9 4.037 9 9.006h6.002c0-8.273-6.73-15.01-15.002-15.01v6.004z"/><path fill="#3D302F" d="M108.994 88.001c11.578 0 21.004 9.426 21.004 21.01h6c0-14.895-12.113-27.01-27.004-27.01v6z"/><path fill="#3D302F" d="M108.994 76c18.199 0 33.006 14.807 33.006 33.012h6c0-21.514-17.498-39.012-39.006-39.012v6z"/><g fill="#3D302F"><polygon points="615.877,76 615.877,70 609.877,70 609.877,76 597.877,76 597.877,70 591.877,70 591.877,76 580,76 580,82 591.877,82 597.877,82 609.877,82 615.877,82 628,82 628,76"/><rect x="586" y="100" width="36" height="6"/><rect x="586" y="88" width="36" height="6"/><polygon points="616,118 586,118 586,112 622,112"/></g><g fill="#3D302F"><polygon points="628,196.001 580,196.001 580,190.001 628,190.001 628,196.001"/><polygon points="610,208.001 580,208.001 580,202.001 610,202.001 610,208.001"/><polygon points="628,225.999 580,225.999 580,220.001 628,220.001 628,225.999"/><polygon points="616,237.999 580,237.999 580,231.999 616,231.999 616,237.999"/><path d="M628 234.999c0 1.658-1.348 3-3 3-1.664 0-3.006-1.342-3.006-3 0-1.655 1.342-3 3.006-3 1.652 0 3 1.344 3 3z"/></g><g fill="#3D302F"><path d="M133 190v5.812c0 2.402-.938 4.664-2.632 6.357l-16.973 16.881c-2.684 2.675-4.16 6.19-4.324 9.949h-6.071l9 9 9-9h-5.937c.16-2.156 1.027-4.16 2.562-5.707l16.98-16.875c2.836-2.836 4.395-6.598 4.395-10.605v-5.812h-6z"/><path d="M138.93 229c-.164-3.759-1.648-7.274-4.336-9.961l-3.34-3.322-4.254 4.227 3.363 3.349c1.547 1.541 2.414 3.551 2.566 5.707h-5.929l9 9 9-9h-6.07z"/></g><g fill="#3D302F"><rect x="1180" y="88" width="48" height="30"/><polygon points="1207,82 1228,82 1222,70 1207,70"/><polygon points="1201,70 1186,70 1180,82 1201,82"/></g><polygon fill="#3D302F" points="373.204,219.438 388,208 370,208 364,190 358,208 340,208 354.812,219.391 349,238 364.023,226.48 379.012,238"/><g fill="#3D302F"><path d="M748 235c0 1.658-1.336 3-3 3h-42c-1.658 0-3-1.342-3-3v-27h48v27z"/><polygon points="718,196.006 718,190 700,190 700,202 748,202 748,196.006"/></g><g fill="#3D302F"><path d="M1338.824 199.129l-4.23 4.247c2.836 2.836 4.406 6.609 4.406 10.625 0 8.273-6.727 15-15 15v-3l-6 6 6 6v-3c11.578 0 21-9.422 21-21 0-5.619-2.191-10.899-6.176-14.872z"/><path d="M1330 196l-6-6v3c-11.578 0-21 9.422-21 21 0 5.618 2.191 10.898 6.176 14.871l4.23-4.247c-2.836-2.836-4.406-6.609-4.406-10.625 0-8.273 6.727-15 15-15v3l6-5.999z"/></g><g fill="#3D302F"><path d="M480.61 219.098l-15.009-15c-7.468 8.631-7.468 21.369 0 30l15.009-15z"/><path d="M490 196.237v21.97l-15.527 15.533c3.492 2.607 7.734 4.26 12.431 4.26 11.651 0 21.097-9.434 21.097-21.088-.001-10.588-7.844-19.166-18.001-20.675z"/><path d="M484 214.023v-24.023c-6.542.404-12.445 2.906-17.215 6.806l17.215 17.217z"/></g><g fill="#3D302F"><polygon points="1060,225.999 1084,231.999 1108,225.999 1108,231.999 1084,237.999 1060,231.999"/><polygon points="1060,214.001 1084,220.001 1108,214.001 1108,220.001 1084,225.999 1060,220.001"/><polygon points="1060,202.001 1084,208.001 1108,202.001 1108,208.001 1084,214.001 1060,208.001"/><polygon points="1060,190.001 1084,196.001 1108,190.001 1108,196.001 1084,202.001 1060,196.001"/></g><g fill="#3D302F"><rect x="856" y="190" width="12" height="48"/><rect x="838" y="202" width="12" height="36"/><rect x="820" y="214" width="12" height="24"/></g><path fill="#3D302F" d="M964 190c-6.627 0-12 5.373-12 12l12 36s12-29.373 12-36-5.373-12-12-12zm0 18c-3.311 0-6-2.687-6-6s2.689-6 6-6 6 2.687 6 6-2.689 6-6 6z"/><g fill="#3D302F"><path d="M124 322c-6.633 0-12 5.373-12 12s5.367 12 12 12c6.621 0 12-5.373 12-12s-5.379-12-12-12z"/><path d="M127 313c0 1.658-1.348 3-3 3-1.664 0-3-1.342-3-3s1.336-3 3-3c1.652 0 3 1.342 3 3z"/><path d="M111.121 316.879c1.172 1.172 1.172 3.07 0 4.242-1.172 1.175-3.07 1.172-4.242 0s-1.172-3.067 0-4.242c1.172-1.172 3.07-1.172 4.242 0z"/><path d="M103 330.997c1.652 0 3 1.342 3 3 0 1.661-1.348 3-3 3-1.664 0-3-1.339-3-3 0-1.658 1.336-3 3-3z"/><path d="M106.879 346.879c1.172-1.172 3.07-1.172 4.242 0 1.172 1.175 1.172 3.07 0 4.242s-3.07 1.175-4.242 0c-1.172-1.172-1.172-3.07 0-4.242z"/><path d="M121 354.997c0-1.658 1.336-3 3-3 1.664.003 3 1.342 3 3 0 1.661-1.336 3.003-3 3.003s-3-1.342-3-3.003z"/><path d="M136.891 351.121c-1.172-1.172-1.172-3.067 0-4.242 1.172-1.172 3.07-1.172 4.242 0 1.184 1.175 1.184 3.07 0 4.242-1.172 1.175-3.071 1.175-4.242 0z"/><path d="M144.994 336.997c-1.646 0-2.994-1.342-2.994-2.997 0-1.664 1.348-3 3.012-3 1.645 0 3 1.339 2.982 2.997.018 1.661-1.337 3.003-3 3z"/><path d="M141.133 321.124c-1.172 1.169-3.07 1.169-4.242 0-1.172-1.178-1.172-3.07 0-4.245 1.172-1.169 3.07-1.172 4.242.003 1.183 1.172 1.183 3.073 0 4.242z"/></g><path fill="#3D302F" d="M1216 205c-.568 0-1.107.094-1.654.164-2.086-3.691-5.953-6.164-10.346-6.164-4.482 0-8.35 2.496-10.412 6.152-.523-.07-1.055-.152-1.588-.152-6.615 0-12 5.379-12 12s5.385 12 12 12h24c6.619 0 12-5.379 12-12s-5.381-12-12-12zm0 18h-24c-3.311 0-6-2.695-6-6 0-3.293 2.916-5.824 6.01-5.918.008 1.418.258 2.801.75 4.113l5.615-2.098c-.248-.668-.375-1.371-.375-2.098 0-3.305 2.689-6 6-6 1.939 0 3.697.961 4.799 2.461-2.891 2.191-4.799 5.631-4.799 9.539h6c0-3.305 2.689-6 6-6 3.314 0 6 2.695 6 6s-2.686 6.001-6 6.001z"/><g fill="#3D302F"><polygon points="940,76 940,112 958,94 958,76"/><polygon points="970,76 970,112 988,94 988,76"/></g><polygon fill="#3D302F" points="1108,88 1090,88 1090,70 1078,70 1078,88 1060,88 1060,100 1078,100 1078,118 1090,118 1090,100 1108,100"/><path fill="#3D302F" d="M252.414 190h-32.414v48l11.966-9.961 12.024 9.961 12.01-9.945 12 9.945v-32.549l-15.586-15.451zm-5.414 21v-15l15 15h-15z"/><g fill="#3D302F"><polygon points="1333.879,108.121 1343.758,118 1348,113.758 1338.121,103.879 1342,100 1330,100 1330,112"/><polygon points="1309.82,84.057 1306,88 1317.941,87.936 1318,76 1314.062,79.814 1304.242,70 1300,74.242"/><polygon points="1300,113.758 1304.242,118 1314.121,108.121 1318,112 1318,100 1306,100 1309.879,103.879"/><polygon points="1342.047,88 1338.156,84.106 1348,74.257 1343.746,70 1333.891,79.85 1330,75.956 1330,88"/></g><g fill="#3D302F"><polygon points="247,340 247,349 253,349 244,358 235,349 241,349 241,340"/><polygon points="250,331 259.013,331 259.013,325.094 268,334 259.013,343 259.013,337 250,337"/><polygon points="241,328 241,319 235,319 244,310 253,319 247,319 247,328"/><polygon points="238,337 229,337 229,343 220,334 229,325.094 229,331 238,331"/></g><path fill="#3D302F" d="M376.949 343.275c-12.281 0-22.23-9.955-22.23-22.23 0-4.043 1.16-7.781 3.047-11.045-10.243 2.953-17.766 12.281-17.766 23.467 0 13.547 10.98 24.533 24.527 24.533 11.183 0 20.52-7.535 23.473-17.766-3.27 1.881-7.008 3.041-11.051 3.041z"/><g fill="#3D302F"><path d="M506.243 311.756c-2.344-2.341-6.141-2.341-8.484 0l-22.688 22.699c2.026.524 3.901 1.544 5.424 3.067 1.547 1.547 2.531 3.434 3.06 5.411l22.688-22.69c2.343-2.343 2.343-6.143 0-8.487z"/><path d="M476.253 350.247c2.344-2.344 2.344-6.141 0-8.481-2.344-2.344-6.141-2.344-8.484 0l-7.769 16.233 16.253-7.752z"/></g><path fill="#3D302F" d="M628 310h-36v11.997c-4.359 0-12 0-12 .003v36h36v-12h12v-36zm-18 42h-24v-18h6v12h18v6zm12-12h-24v-18h24v18z"/><path fill="#3D302F" d="M748 336.953v-6l-7.172-2.988c-.199-.562-.41-1.104-.668-1.641l2.895-7.207-4.242-4.242-7.144 2.941c-.544-.261-1.102-.483-1.676-.691l-3.04-7.125h-6l-2.965 7.102c-.598.211-1.172.434-1.741.703l-7.13-2.862-4.242 4.242 2.906 7.066c-.281.577-.511 1.172-.727 1.781l-7.054 3.015v6l7.06 2.941c.218.609.452 1.204.733 1.781l-2.854 7.113 4.242 4.242 7.085-2.918c.567.27 1.148.489 1.746.691l3.035 7.102h6l2.97-7.137c.569-.211 1.132-.434 1.671-.691l7.195 2.883 4.242-4.242-2.953-7.16c.251-.539.457-1.081.656-1.641l7.172-3.058zm-24.047 6.047c-4.969 0-9-4.031-9-9s4.031-9 9-9 9 4.031 9 9-4.031 9-9 9z"/><g fill="#3D302F"><path d="M844 316c-13.254 0-24 17.766-24 17.766s10.746 18.234 24 18.234l24-18.234s-10.746-17.766-24-17.766zm0 30c-6.627 0-12-5.373-12-12 0-6.624 5.373-12 12-12s12 5.376 12 12c0 6.627-5.373 12-12 12z"/><circle cx="844" cy="334.023" r="6"/></g><g fill="#3D302F"><rect x="946" y="351.142" width="36" height="6.858"/><polygon points="970,337.428 970,310 958,310 958,337.428 952,337.428 964.018,351.142 976,337.428"/></g><path fill="#3D302F" d="M1084 310c-13.254 0-24 10.746-24 24s10.746 24 24 24 24-10.746 24-24-10.746-24-24-24zm0 6c3.885 0 7.459 1.266 10.4 3.363l-25.043 25.031c-2.098-2.941-3.357-6.516-3.357-10.395 0-9.925 8.074-17.999 18-17.999zm0 36c-3.885 0-7.459-1.266-10.4-3.363l25.043-25.031c2.098 2.941 3.357 6.516 3.357 10.395 0 9.925-8.074 17.999-18 17.999z"/><path fill="#3D302F" d="M1228 328.001h-6v-3.001c0-1.646-1.345-3-3-3h-36c-1.649 0-3 1.354-3 3v18.003c0 1.649 1.351 2.997 3 2.997h36c1.655 0 3-1.348 3-2.997v-3.003h6v-11.999z"/><path fill="#3D302F" d="M1324 318.766c-2.42-3.398-6.193-5.766-10.67-5.766-7.354 0-13.33 5.988-13.33 13.336v1.102l24.011 27.562 23.989-27.562v-1.102c0-7.348-5.977-13.336-13.325-13.336-4.477 0-8.25 2.367-10.675 5.766z"/><path d="M364 600c-13.254 0-24 10.746-24 24s10.746 24 24 24 24-10.746 24-24-10.746-24-24-24zm-3.721 35.073l-11.039-11.043 4.242-4.242 6.797 6.801 14.426-14.426 4.242 4.242-18.668 18.668z"/><path fill="#4D4D4D" d="M424 600c-13.254 0-24 10.746-24 24s10.746 24 24 24 24-10.746 24-24-10.746-24-24-24zm-3.721 35.073l-11.039-11.043 4.242-4.242 6.797 6.801 14.426-14.426 4.242 4.242-18.668 18.668z"/><path fill="#A9ABAE" d="M484 600c-13.254 0-24 10.746-24 24s10.746 24 24 24 24-10.746 24-24-10.746-24-24-24zm-3.721 35.073l-11.039-11.043 4.242-4.242 6.797 6.801 14.426-14.426 4.242 4.242-18.668 18.668z"/><path fill="#E1D0D0" d="M544 600c-13.254 0-24 10.746-24 24s10.746 24 24 24 24-10.746 24-24-10.746-24-24-24zm-3.721 35.073l-11.039-11.043 4.242-4.242 6.797 6.801 14.426-14.426 4.242 4.242-18.668 18.668z"/><path fill="#5D4F4D" d="M604 600c-13.254 0-24 10.746-24 24s10.746 24 24 24 24-10.746 24-24-10.746-24-24-24zm-3.721 35.073l-11.039-11.043 4.242-4.242 6.797 6.801 14.426-14.426 4.242 4.242-18.668 18.668z"/><path fill="#3E2C2C" d="M664 600c-13.254 0-24 10.746-24 24s10.746 24 24 24 24-10.746 24-24-10.746-24-24-24zm-3.721 35.073l-11.039-11.043 4.242-4.242 6.797 6.801 14.426-14.426 4.242 4.242-18.668 18.668z"/><path fill="#FA0000" d="M724 600c-13.254 0-24 10.746-24 24s10.746 24 24 24 24-10.746 24-24-10.746-24-24-24zm-3.721 35.073l-11.039-11.043 4.242-4.242 6.797 6.801 14.426-14.426 4.242 4.242-18.668 18.668z"/><path fill="#FF9D00" d="M784 600c-13.254 0-24 10.746-24 24s10.746 24 24 24 24-10.746 24-24-10.746-24-24-24zm-3.721 35.073l-11.039-11.043 4.242-4.242 6.797 6.801 14.426-14.426 4.242 4.242-18.668 18.668z"/><path fill="#FFF600" d="M844 600c-13.254 0-24 10.746-24 24s10.746 24 24 24 24-10.746 24-24-10.746-24-24-24zm-3.721 35.073l-11.039-11.043 4.242-4.242 6.797 6.801 14.426-14.426 4.242 4.242-18.668 18.668z"/><path fill="#72CA34" d="M904 600c-13.254 0-24 10.746-24 24s10.746 24 24 24 24-10.746 24-24-10.746-24-24-24zm-3.721 35.073l-11.039-11.043 4.242-4.242 6.797 6.801 14.426-14.426 4.242 4.242-18.668 18.668z"/><path fill="#00AAF2" d="M964 600c-13.254 0-24 10.746-24 24s10.746 24 24 24 24-10.746 24-24-10.746-24-24-24zm-3.721 35.073l-11.039-11.043 4.242-4.242 6.797 6.801 14.426-14.426 4.242 4.242-18.668 18.668z"/><path fill="#2348A6" d="M1024 600c-13.254 0-24 10.746-24 24s10.746 24 24 24 24-10.746 24-24-10.746-24-24-24zm-3.721 35.073l-11.039-11.043 4.242-4.242 6.797 6.801 14.426-14.426 4.242 4.242-18.668 18.668z"/><path fill="#FB0085" d="M1084 600c-13.254 0-24 10.746-24 24s10.746 24 24 24 24-10.746 24-24-10.746-24-24-24zm-3.721 35.073l-11.039-11.043 4.242-4.242 6.797 6.801 14.426-14.426 4.242 4.242-18.668 18.668z"/><g fill="#3D302F"><path d="M323.5 937c30.604 0 55.5 24.896 55.5 55.5s-24.896 55.5-55.5 55.5c-2.891 0-6.089-.353-10.064-1.084l-19.132-3.541-13.767 13.766-1.698 1.697-10.839 10.842v15.32h-37v37h-37v37h-37v-21.68l101.859-101.858 13.766-13.767-3.541-19.141c-.74-3.975-1.084-7.164-1.084-10.054 0-30.604 24.896-55.5 55.5-55.5m0-37c-51.092 0-92.5 41.409-92.5 92.5 0 5.781.687 11.346 1.698 16.802l-112.698 112.698v74h111v-37h37v-37h37v-37l1.698-1.698c5.456 1.012 11.029 1.698 16.802 1.698 51.091 0 92.5-41.408 92.5-92.5 0-51.091-41.408-92.5-92.5-92.5z"/><path d="M342.072 992.5c0 10.226-8.274 18.5-18.5 18.5s-18.5-8.275-18.5-18.5 8.275-18.5 18.5-18.5 18.5 8.274 18.5 18.5z"/></g><path fill="#3D302F" d="M765 974c40.83 0 74 33.17 74 74s-33.17 74-74 74h-74c-24.137 0-45.636 11.635-59.149 29.629-8.997-6.793-14.851-17.561-14.851-29.629v-92.5c0-30.596 24.932-55.5 55.5-55.5h92.5m0-37h-92.5c-51.092 0-92.5 41.409-92.5 92.5v92.5c0 40.857 33.17 74 74 74 0-20.451 16.585-37 37-37h74c61.317 0 111-49.719 111-111s-49.683-111-111-111z"/><path fill="#3D302F" d="M497 1348c16.553 0 30 13.447 30 30s-13.447 30-30 30h-30c-9.785 0-18.501 4.717-23.979 12.012-3.647-2.754-6.021-7.119-6.021-12.012v-37.5c0-12.403 10.107-22.5 22.5-22.5h37.5m0-15h-37.5c-20.713 0-37.5 16.787-37.5 37.5v37.5c0 16.563 13.447 30 30 30 0-8.291 6.724-15 15-15h30c24.858 0 45-20.156 45-45s-20.142-45-45-45z"/><path fill="#3D302F" d="M422 1586.996c0 16.564 13.447 30 29.999 30 0-8.291 6.724-15 15-15h29.999c24.858 0 45.002-20.156 45.002-44.998 0-24.844-20.145-44.998-45.002-44.998h-37.499c-20.712 0-37.499 16.785-37.499 37.498v37.498z"/><path fill="#3D302F" d="M720.5 1341c20.684 0 37.5 16.816 37.5 37.5s-16.816 37.5-37.5 37.5c-2.655 0-5.526-.392-8.76-1.19l-6.387-1.582-5.497 3.633-1.71 1.132.011-2.56.048-6.2-4.365-4.405c-6.991-7.09-10.84-16.443-10.84-26.327 0-20.685 16.816-37.501 37.5-37.501m0-15c-28.975 0-52.5 23.515-52.5 52.5 0 14.374 5.801 27.363 15.157 36.855l-.157 30.645 25.137-16.622c3.984.978 8.086 1.622 12.363 1.622 28.985 0 52.5-23.515 52.5-52.5s-23.515-52.5-52.5-52.5z"/><path fill="#3D302F" d="M720.5 1504c-28.975 0-52.5 23.511-52.5 52.5 0 14.37 5.801 27.37 15.157 36.855l-.157 30.645 25.137-16.626c3.984.974 8.086 1.626 12.363 1.626 28.985 0 52.5-23.511 52.5-52.5s-23.515-52.5-52.5-52.5z"/><path fill="#3D302F" d="M967 1351c41.528 0 45 15.483 45 30.001 0 5.039-1.348 10.518-2.812 15h-49.688c-17.638 0-25.255.732-33.751 6.592-3.516-9.646-5.757-22.676-1.406-33.15 5.068-12.235 19.424-18.443 42.657-18.443m0-15c-83.879 0-59.957 75.001-44.972 90.001 15-15 15-15 37.472-15h59.766s7.734-15 7.734-30c0-37.501-30-45.001-60-45.001z"/><path fill="#3D302F" d="M1019.266 1590s7.734-15 7.734-30c0-37.5-29.979-45-59.979-45-83.914 0-59.979 75-44.979 90 14.993-15 14.993-15 37.479-15h59.745z"/><path fill="#3D302F" d="M282.773 1730h-132.773v132.773l187.188 187.227v-132.773h132.812l-187.227-187.227zm-59.648 111.211c-21.016 0-38.047-17.031-38.047-38.047s17.031-38.047 38.047-38.047 38.047 17.031 38.047 38.047-17.031 38.047-38.047 38.047z"/><path fill="#3D302F" d="M408.639 1730h-6.639v6.639l9.359 9.361v-6.639h6.641l-9.361-9.361zm-2.983 5.561c-1.051 0-1.902-.852-1.902-1.902s.852-1.902 1.902-1.902 1.902.852 1.902 1.902-.851 1.902-1.902 1.902z"/><g fill="#3D302F"><path d="M1298.281 1741.704c-15.625-15.605-40.938-15.605-56.562 0l-151.25 151.328c13.506 3.496 26.006 10.293 36.162 20.449 10.312 10.312 16.875 22.891 20.4 36.074l151.25-151.27c15.625-15.624 15.625-40.956 0-56.581z"/><path d="M1098.35 1998.306c15.625-15.625 15.625-40.938 0-56.543-15.625-15.625-40.938-15.625-56.562 0l-51.788 108.222 108.35-51.679z"/></g><g fill="#3D302F"><path d="M1256.95 2015.826c-.781-.78-2.047-.78-2.828 0l-7.562 7.566c.675.174 1.3.514 1.808 1.021.516.516.844 1.145 1.021 1.805l7.562-7.563c.78-.781.78-2.048-.001-2.829z"/><path d="M1246.953 2028.656c.781-.781.781-2.047 0-2.828s-2.047-.781-2.828 0l-2.589 5.412 5.417-2.584z"/></g><path fill="#3D302F" d="M786.094 1730h-216.094v320l79.775-66.406 80.157 66.406 80.068-66.299 80 66.299v-216.992l-103.906-103.008zm-36.094 140v-100l100 100h-100z"/><path fill="#3D302F" d="M884.805 1730h-10.805v16l3.989-3.32 4.008 3.32 4.003-3.314 4 3.314v-10.85l-5.195-5.15zm-1.805 7v-5l5 5h-5z"/><g stroke="#E1D0D0" stroke-miterlimit="10" fill="none"><rect x="120" y="900" width="296" height="296"/><line x1="157" y1="900" x2="157" y2="1196"/><line x1="194" y1="900" x2="194" y2="1196"/><line x1="231" y1="900" x2="231" y2="1196"/><line x1="268" y1="900" x2="268" y2="1196"/><line x1="305" y1="900" x2="305" y2="1196"/><line x1="342" y1="900" x2="342" y2="1196"/><line x1="379" y1="900" x2="379" y2="1196"/><line x1="416" y1="937" x2="120" y2="937"/><line x1="416" y1="974" x2="120" y2="974"/><line x1="416" y1="1011" x2="120" y2="1011"/><line x1="416" y1="1048" x2="120" y2="1048"/><line x1="416" y1="1085" x2="120" y2="1085"/><line x1="416" y1="1122" x2="120" y2="1122"/><line x1="416" y1="1159" x2="120" y2="1159"/><line x1="120" y1="900" x2="416" y2="1196"/><line x1="416" y1="900" x2="120" y2="1196"/></g><g stroke="#E1D0D0" stroke-miterlimit="10" fill="none"><rect x="580" y="900" width="296" height="296"/><line x1="617" y1="900" x2="617" y2="1196"/><line x1="654" y1="900" x2="654" y2="1196"/><line x1="691" y1="900" x2="691" y2="1196"/><line x1="728" y1="900" x2="728" y2="1196"/><line x1="765" y1="900" x2="765" y2="1196"/><line x1="802" y1="900" x2="802" y2="1196"/><line x1="839" y1="900" x2="839" y2="1196"/><line x1="876" y1="937" x2="580" y2="937"/><line x1="876" y1="974" x2="580" y2="974"/><line x1="876" y1="1011" x2="580" y2="1011"/><line x1="876" y1="1048" x2="580" y2="1048"/><line x1="876" y1="1085" x2="580" y2="1085"/><line x1="876" y1="1122" x2="580" y2="1122"/><line x1="876" y1="1159" x2="580" y2="1159"/><line x1="580" y1="900" x2="876" y2="1196"/><line x1="876" y1="900" x2="580" y2="1196"/></g><g fill="#3D302F"><polygon points="1251.241,937 1251.241,900 1214.241,900 1214.241,937 1140.241,937 1140.241,900 1103.241,900 1103.241,937 1030,937 1030,974 1103.241,974 1140.241,974 1214.241,974 1251.241,974 1326,974 1326,937"/><rect x="1067" y="1085" width="222" height="37"/><rect x="1067" y="1011" width="222" height="37"/><polygon points="1252,1196 1067,1196 1067,1159 1289,1159"/></g><g stroke="#E1D0D0" stroke-miterlimit="10" fill="none"><rect x="1030" y="900" width="296" height="296"/><line x1="1067" y1="900" x2="1067" y2="1196"/><line x1="1104" y1="900" x2="1104" y2="1196"/><line x1="1141" y1="900" x2="1141" y2="1196"/><line x1="1178" y1="900" x2="1178" y2="1196"/><line x1="1215" y1="900" x2="1215" y2="1196"/><line x1="1252" y1="900" x2="1252" y2="1196"/><line x1="1289" y1="900" x2="1289" y2="1196"/><line x1="1326" y1="937" x2="1030" y2="937"/><line x1="1326" y1="974" x2="1030" y2="974"/><line x1="1326" y1="1011" x2="1030" y2="1011"/><line x1="1326" y1="1048" x2="1030" y2="1048"/><line x1="1326" y1="1085" x2="1030" y2="1085"/><line x1="1326" y1="1122" x2="1030" y2="1122"/><line x1="1326" y1="1159" x2="1030" y2="1159"/><line x1="1030" y1="900" x2="1326" y2="1196"/><line x1="1326" y1="900" x2="1030" y2="1196"/></g></svg>