<svg xmlns="http://www.w3.org/2000/svg" height="1624" width="2000"><path d="m1999 192.5c-73.7 32.52-152.8 54.6-235.7 64.45 84.75-50.73 149.8-131.3 180.2-227-79.37 47.14-167.1 81.16-260.5 99.65-73-79.78-180-129.6-298-129.6-226.4 0-410.3 183.7-410.3 410.3 0 32.22 3.579 63.55 10.74 93.38-340.7-17-642.9-180.5-845.2-428.8-35.19 60.58-55.47 131-55.47 206.1 0 142.4 72.5 267.9 182.5 341.3-67.13-2.09-130.4-20.6-185.8-51.31v5.067c0 198.7 141.5 364.6 329.1 402.2-34.31 9.258-70.71 14.32-108 14.32-26.55 0-52.21-2.686-77.28-7.45 52.22 162.9 203.7 281.6 383.1 284.9-140.6 110.1-317.1 175.7-509.6 175.7-33.12 0-65.64-2.09-97.86-5.674 181.4 116.4 397.1 184.4 628.9 184.4 754.6 0 1168-625 1168-1168 0-17.9-.293-35.5-1.191-53.1 80.26-57.89 149.8-130.1 204.6-212.4v2.1l-2-.1z" fill="#fff"/></svg>